<svg width="24" height="24" viewBox="0 0 24 24" fill="none" xmlns="http://www.w3.org/2000/svg">
<path d="M3.53782 9.63395L10.3729 12.6238L13.361 19.4629C13.5041 19.7941 13.8262 20 14.1841 20H14.2288C14.4097 19.9907 14.5836 19.9267 14.7274 19.8164C14.8711 19.7061 14.9781 19.5548 15.034 19.3823L19.9545 4.16447C20.0065 4.00861 20.0141 3.84134 19.9764 3.68141C19.9387 3.52149 19.8572 3.37523 19.7411 3.25904C19.625 3.14286 19.4788 3.06133 19.319 3.02362C19.1592 2.9859 18.992 2.99348 18.8362 3.04551L3.61834 7.95998C3.26048 8.07635 3.01893 8.39861 3.00104 8.76563C2.98315 9.13265 3.19786 9.48177 3.53782 9.63395Z" fill="black"/>
</svg>
