<svg width="24" height="24" viewBox="0 0 24 24" fill="none" xmlns="http://www.w3.org/2000/svg">
<path d="M10 8.5H21M3 15.5H14M3 8.5C3 9.03043 3.21071 9.53914 3.58579 9.91421C3.96086 10.2893 4.46957 10.5 5 10.5C5.53043 10.5 6.03914 10.2893 6.41421 9.91421C6.78929 9.53914 7 9.03043 7 8.5C7 7.96957 6.78929 7.46086 6.41421 7.08579C6.03914 6.71071 5.53043 6.5 5 6.5C4.46957 6.5 3.96086 6.71071 3.58579 7.08579C3.21071 7.46086 3 7.96957 3 8.5ZM17 15.5C17 16.0304 17.2107 16.5391 17.5858 16.9142C17.9609 17.2893 18.4696 17.5 19 17.5C19.5304 17.5 20.0391 17.2893 20.4142 16.9142C20.7893 16.5391 21 16.0304 21 15.5C21 14.9696 20.7893 14.4609 20.4142 14.0858C20.0391 13.7107 19.5304 13.5 19 13.5C18.4696 13.5 17.9609 13.7107 17.5858 14.0858C17.2107 14.4609 17 14.9696 17 15.5Z" stroke="black" stroke-width="2" stroke-linecap="round" stroke-linejoin="round"/>
</svg>
